<svg id="kity_svg_6" xmlns="http://www.w3.org/2000/svg" xmlns:xlink="http://www.w3.org/1999/xlink" version="1.1" width="982" height="435" style="background: rgb(251, 251, 251); visibility: visible;" viewBox="0 0 982 435"><defs id="kity_defs_7"><linearGradient id="kity_linearGradient_17" x1="0" y1="0" x2="0" y2="1"><stop id="kity_stop_18" offset="0" stop-color="rgb(255, 255, 255)"></stop><stop id="kity_stop_19" offset="1" stop-color="rgb(204, 204, 204)"></stop></linearGradient><marker id="kity_marker_2" orient="auto" refX="6" refY="0" viewBox="-7 -7 14 14" markerWidth="7" markerHeight="7" markerUnits="userSpaceOnUse"><path id="kity_path_3" fill="rgb(115, 161, 191)" stroke="none" d="M6,0A6,6,0,1,1,-6,0A6,6,0,1,1,6,0"></path></marker></defs><g id="kity_g_8"><g id="minder1" text-rendering="optimize-speed"><g id="minder_connect_group1"><path id="kity_path_31" fill="none" stroke="rgb(115, 161, 191)" stroke-width="1" d="M504.5000106021762,241.50000453740358A160,0,0,0,1,664.5000106021762,241.50000453740358"></path><path id="kity_path_39" fill="none" stroke="rgb(115, 161, 191)" stroke-width="1" d="M504.5000106021762,241.50000453740358A160,0,0,0,1,344.5000106021762,241.50000453740358"></path><path id="kity_path_47" fill="none" stroke="rgb(115, 161, 191)" stroke-width="1" d="M245.5000106021762,241.50000453740358C230.5000106021762,241.50000453740358,230.5000106021762,125.50000453740358,215.5000106021762,125.50000453740358L175.5000106021762,125.50000453740358"></path><path id="kity_path_55" fill="none" stroke="rgb(115, 161, 191)" stroke-width="1" d="M245.5000106021762,241.50000453740358C230.5000106021762,241.50000453740358,230.5000106021762,255.50000453740358,215.5000106021762,255.50000453740358L168.5000106021762,255.50000453740358"></path><path id="kity_path_63" fill="none" stroke="rgb(115, 161, 191)" stroke-width="1" d="M245.5000106021762,241.50000453740358C230.5000106021762,241.50000453740358,230.5000106021762,307.5000045374036,215.5000106021762,307.5000045374036L159.5000106021762,307.5000045374036"></path><path id="kity_path_71" fill="none" stroke="rgb(115, 161, 191)" stroke-width="1" d="M175.5000106021762,125.50000453740358C156.5000106021762,125.50000453740358,156.5000106021762,45.50000453740358,137.5000106021762,45.50000453740358L41.50001060217619,45.50000453740358"></path><path id="kity_path_79" fill="none" stroke="rgb(115, 161, 191)" stroke-width="1" d="M175.5000106021762,125.50000453740358C148.5000106021762,125.50000453740358,148.5000106021762,101.50000453740358,121.50001060217619,101.50000453740358L38.50001060217619,101.50000453740358"></path><path id="kity_path_87" fill="none" stroke="rgb(115, 161, 191)" stroke-width="1" d="M175.5000106021762,125.50000453740358C160.5000106021762,125.50000453740358,160.5000106021762,151.50000453740358,145.5000106021762,151.50000453740358L32.50001060217619,151.50000453740358"></path><path id="kity_path_95" fill="none" stroke="rgb(115, 161, 191)" stroke-width="1" d="M175.5000106021762,125.50000453740358C160.5000106021762,125.50000453740358,160.5000106021762,203.50000453740358,145.5000106021762,203.50000453740358L45.50001060217619,203.50000453740358"></path><path id="kity_path_103" fill="none" stroke="rgb(115, 161, 191)" stroke-width="1" d="M245.5000106021762,241.50000453740358C230.5000106021762,241.50000453740358,230.5000106021762,385.5000045374036,215.5000106021762,385.5000045374036L148.5000106021762,385.5000045374036"></path><path id="kity_path_111" fill="none" stroke="rgb(115, 161, 191)" stroke-width="1" d="M148.5000106021762,385.5000045374036C143.0000106021762,385.5000045374036,143.0000106021762,359.5000045374036,137.5000106021762,359.5000045374036L23.50001060217619,359.5000045374036"></path><path id="kity_path_119" fill="none" stroke="rgb(115, 161, 191)" stroke-width="1" d="M148.5000106021762,385.5000045374036C140.5000106021762,385.5000045374036,140.5000106021762,415.5000045374036,132.5000106021762,415.5000045374036L20.50001060217619,415.5000045374036"></path><path id="kity_path_127" fill="none" stroke="rgb(115, 161, 191)" stroke-width="1" d="M168.5000106021762,255.50000453740358C137.0000106021762,255.50000453740358,137.0000106021762,257.5000045374036,105.50001060217619,257.5000045374036L52.50001060217619,257.5000045374036"></path><path id="kity_path_135" fill="none" stroke="rgb(115, 161, 191)" stroke-width="1" d="M763.5000106021762,241.50000453740358C778.5000106021762,241.50000453740358,778.5000106021762,164.50000453740358,793.5000106021762,164.50000453740358L853.5000106021762,164.50000453740358"></path><path id="kity_path_143" fill="none" stroke="rgb(115, 161, 191)" stroke-width="1" d="M763.5000106021762,241.50000453740358C778.5000106021762,241.50000453740358,778.5000106021762,242.50000453740358,793.5000106021762,242.50000453740358L847.5000106021762,242.50000453740358"></path><path id="kity_path_151" fill="none" stroke="rgb(115, 161, 191)" stroke-width="1" d="M763.5000106021762,241.50000453740358C778.5000106021762,241.50000453740358,778.5000106021762,346.5000045374036,793.5000106021762,346.5000045374036L860.5000106021762,346.5000045374036"></path><path id="kity_path_159" fill="none" stroke="rgb(115, 161, 191)" stroke-width="1" d="M860.5000106021762,346.5000045374036C875.5000106021762,346.5000045374036,875.5000106021762,320.5000045374036,890.5000106021762,320.5000045374036L962.5000106021762,320.5000045374036"></path><path id="kity_path_167" fill="none" stroke="rgb(115, 161, 191)" stroke-width="1" d="M860.5000106021762,346.5000045374036C875.5000106021762,346.5000045374036,875.5000106021762,372.5000045374036,890.5000106021762,372.5000045374036L954.5000106021762,372.5000045374036"></path><path id="kity_path_175" fill="none" stroke="rgb(115, 161, 191)" stroke-width="1" d="M847.5000106021762,242.50000453740358C862.5000106021762,242.50000453740358,862.5000106021762,216.50000453740358,877.5000106021762,216.50000453740358L943.5000106021762,216.50000453740358"></path><path id="kity_path_183" fill="none" stroke="rgb(115, 161, 191)" stroke-width="1" d="M847.5000106021762,242.50000453740358C862.5000106021762,242.50000453740358,862.5000106021762,268.5000045374036,877.5000106021762,268.5000045374036L952.5000106021762,268.5000045374036"></path></g><g id="minder_node1"><path id="node_outline1" fill="rgb(115, 161, 191)" stroke="rgb(115, 161, 191)" d="M467.5000106021762,221.50000453740358h74a5,5,0,0,1,5,5v30a5,5,0,0,1,-5,5h-74a5,5,0,0,1,-5,-5v-30a5,5,0,0,1,5,-5z" stroke-width="3"></path><g id="node_text1" fill="white"><text id="kity_text_22" text-rendering="inherit" font-size="16" dy=".8em" y="231.1000045016408" x="486.5000106021762">skills</text></g></g><g id="kity_g_12" display="none"><path id="kity_path_13" fill="none" stroke="none" d="M486.5000106021762,241.50000453740358h0v0h0z"></path></g><g id="kity_g_14" display="none"><path id="kity_path_15" fill="none" stroke="none" d="M486.5000106021762,241.50000453740358h0v0h0z"></path><path id="kity_path_16" fill="none" stroke="none"></path></g><g id="minder_node2"><g id="node_expander1" style="cursor: pointer;"><path id="kity_path_36" fill="white" stroke="gray" d="M665.5000131800771,241.50000453740358A6,6,0,1,1,653.5000131800771,241.50000453740358A6,6,0,1,1,665.5000131800771,241.50000453740358"></path><path id="kity_path_37" fill="none" stroke="gray" d="M655.0000131800771,241.50000453740358L664.0000131800771,241.50000453740358"></path></g><path id="node_outline2" fill="rgb(238, 243, 246)" stroke="rgb(115, 161, 191)" d="M669.5000135824084,228.50000453740358h91a3,3,0,0,1,3,3v20a3,3,0,0,1,-3,3h-91a3,3,0,0,1,-3,-3v-20a3,3,0,0,1,3,-3z" stroke-width="1"></path><g id="node_text2" fill="black"><text id="kity_text_33" text-rendering="inherit" font-size="14" dy=".8em" y="232.40000450611115" x="686.5000135824084">backEnd</text></g></g><g id="minder_node3"><g id="node_expander2" style="cursor: pointer;"><path id="kity_path_44" fill="white" stroke="gray" d="M355.5000085607171,241.50000453740358A6,6,0,1,1,343.5000085607171,241.50000453740358A6,6,0,1,1,355.5000085607171,241.50000453740358"></path><path id="kity_path_45" fill="none" stroke="gray" d="M345.0000085607171,241.50000453740358L354.0000085607171,241.50000453740358"></path></g><path id="node_outline3" fill="rgb(238, 243, 246)" stroke="rgb(115, 161, 191)" d="M248.50000730901957,228.50000453740358h91a3,3,0,0,1,3,3v20a3,3,0,0,1,-3,3h-91a3,3,0,0,1,-3,-3v-20a3,3,0,0,1,3,-3z" stroke-width="1"></path><g id="node_text3" fill="black"><text id="kity_text_41" text-rendering="inherit" font-size="14" dy=".8em" y="232.40000450611115" x="265.50000730901957">fondEnd</text></g></g><g id="minder_node4"><g id="node_expander3" style="cursor: pointer;"><path id="kity_path_52" fill="white" stroke="gray" d="M217.50000650435686,111.50000260025263A6,6,0,1,1,205.50000650435686,111.50000260025263A6,6,0,1,1,217.50000650435686,111.50000260025263"></path><path id="kity_path_53" fill="none" stroke="gray" d="M207.00000650435686,111.50000260025263L216.00000650435686,111.50000260025263"></path></g><path id="node_outline4" fill="none" stroke="none" d="M180.50000611692667,100.50000260025263h20a5,5,0,0,1,5,5v12a5,5,0,0,1,-5,5h-20a5,5,0,0,1,-5,-5v-12a5,5,0,0,1,5,-5z" stroke-width="3"></path><g id="node_text4" fill="black"><text id="kity_text_49" text-rendering="inherit" font-size="12" dy=".8em" y="103.70000257343054" x="185.50000611692667">js</text></g></g><g id="minder_node5"><g id="node_expander4" style="cursor: pointer;"><path id="kity_path_60" fill="white" stroke="gray" d="M217.50000650435686,241.50000453740358A6,6,0,1,1,205.50000650435686,241.50000453740358A6,6,0,1,1,217.50000650435686,241.50000453740358"></path><path id="kity_path_61" fill="none" stroke="gray" d="M207.00000650435686,241.50000453740358L216.00000650435686,241.50000453740358"></path></g><path id="node_outline5" fill="none" stroke="none" d="M173.50000601261854,230.50000453740358h27a5,5,0,0,1,5,5v12a5,5,0,0,1,-5,5h-27a5,5,0,0,1,-5,-5v-12a5,5,0,0,1,5,-5z" stroke-width="3"></path><g id="node_text5" fill="black"><text id="kity_text_57" text-rendering="inherit" font-size="12" dy=".8em" y="233.7000045105815" x="178.50000601261854">css</text></g></g><g id="minder_node6"><g id="node_expander5" style="cursor: pointer;" display="none"><path id="kity_path_68" fill="white" stroke="gray" d="M217.50000650435686,293.50000531226397A6,6,0,1,1,205.50000650435686,293.50000531226397A6,6,0,1,1,217.50000650435686,293.50000531226397"></path><path id="kity_path_69" fill="none" stroke="gray"></path></g><path id="node_outline6" fill="none" stroke="none" d="M164.5000058785081,282.50000531226397h36a5,5,0,0,1,5,5v12a5,5,0,0,1,-5,5h-36a5,5,0,0,1,-5,-5v-12a5,5,0,0,1,5,-5z" stroke-width="3"></path><g id="node_text6" fill="black"><text id="kity_text_65" text-rendering="inherit" font-size="12" dy=".8em" y="285.7000052854419" x="169.5000058785081">html</text></g></g><g id="minder_node7" opacity="1"><g id="node_expander6" style="cursor: pointer;" display="none"><path id="kity_path_76" fill="white" stroke="gray" d="M139.5000053420663,31.500001408159733A6,6,0,1,1,127.50000534206629,31.500001408159733A6,6,0,1,1,139.5000053420663,31.500001408159733"></path><path id="kity_path_77" fill="none" stroke="gray"></path></g><path id="node_outline7" fill="none" stroke="none" d="M46.50000412017107,20.500001408159733h76a5,5,0,0,1,5,5v12a5,5,0,0,1,-5,5h-76a5,5,0,0,1,-5,-5v-12a5,5,0,0,1,5,-5z" stroke-width="3"></path><g id="node_text7" fill="black"><text id="kity_text_73" text-rendering="inherit" font-size="12" dy=".8em" y="23.700001381337643" x="51.50000412017107">原生js(中等)</text></g></g><g id="minder_node8" opacity="1"><g id="node_expander7" style="cursor: pointer;" display="none"><path id="kity_path_84" fill="white" stroke="gray" d="M123.50000510364771,87.50000224262476A6,6,0,1,1,111.50000510364771,87.50000224262476A6,6,0,1,1,123.50000510364771,87.50000224262476"></path><path id="kity_path_85" fill="none" stroke="gray"></path></g><path id="node_outline8" fill="none" stroke="none" d="M43.50000407546759,76.50000224262476h63a5,5,0,0,1,5,5v12a5,5,0,0,1,-5,5h-63a5,5,0,0,1,-5,-5v-12a5,5,0,0,1,5,-5z" stroke-width="3"></path><g id="node_text8" fill="black"><text id="kity_text_81" text-rendering="inherit" font-size="12" dy=".8em" y="79.70000221580267" x="48.50000407546759">vue(熟练)</text></g></g><g id="minder_node9"><g id="node_expander8" style="cursor: pointer;" display="none"><path id="kity_path_92" fill="white" stroke="gray" d="M147.50000546127558,137.50000298768282A6,6,0,1,1,135.50000546127558,137.50000298768282A6,6,0,1,1,147.50000546127558,137.50000298768282"></path><path id="kity_path_93" fill="none" stroke="gray"></path></g><path id="node_outline9" fill="none" stroke="none" d="M37.50000398606062,126.50000298768282h93a5,5,0,0,1,5,5v12a5,5,0,0,1,-5,5h-93a5,5,0,0,1,-5,-5v-12a5,5,0,0,1,5,-5z" stroke-width="3"></path><g id="node_text9" fill="black"><text id="kity_text_89" text-rendering="inherit" font-size="12" dy=".8em" y="129.70000296086073" x="42.50000398606062">angular1(熟练)</text></g></g><g id="minder_node10"><g id="node_expander9" style="cursor: pointer;" display="none"><path id="kity_path_100" fill="white" stroke="gray" d="M147.50000546127558,189.5000037625432A6,6,0,1,1,135.50000546127558,189.5000037625432A6,6,0,1,1,147.50000546127558,189.5000037625432"></path><path id="kity_path_101" fill="none" stroke="gray"></path></g><path id="node_outline10" fill="none" stroke="none" d="M50.500004179775715,178.5000037625432h80a5,5,0,0,1,5,5v12a5,5,0,0,1,-5,5h-80a5,5,0,0,1,-5,-5v-12a5,5,0,0,1,5,-5z" stroke-width="3"></path><g id="node_text10" fill="black"><text id="kity_text_97" text-rendering="inherit" font-size="12" dy=".8em" y="181.7000037357211" x="55.500004179775715">jquery(中等)</text></g></g><g id="minder_node11"><g id="node_expander10" style="cursor: pointer;"><path id="kity_path_108" fill="white" stroke="gray" d="M217.50000650435686,371.50000647455454A6,6,0,1,1,205.50000650435686,371.50000647455454A6,6,0,1,1,217.50000650435686,371.50000647455454"></path><path id="kity_path_109" fill="none" stroke="gray" d="M207.00000650435686,371.50000647455454L216.00000650435686,371.50000647455454"></path></g><path id="node_outline11" fill="none" stroke="none" d="M153.50000571459532,360.50000647455454h47a5,5,0,0,1,5,5v12a5,5,0,0,1,-5,5h-47a5,5,0,0,1,-5,-5v-12a5,5,0,0,1,5,-5z" stroke-width="3"></path><g id="node_text11" fill="black"><text id="kity_text_105" text-rendering="inherit" font-size="12" dy=".8em" y="363.70000644773245" x="158.50000571459532">工程化</text></g></g><g id="minder_node12" opacity="1"><g id="node_expander11" style="cursor: pointer;" display="none"><path id="kity_path_116" fill="white" stroke="gray" d="M139.5000053420663,345.50000608712435A6,6,0,1,1,127.50000534206629,345.50000608712435A6,6,0,1,1,139.5000053420663,345.50000608712435"></path><path id="kity_path_117" fill="none" stroke="gray"></path></g><path id="node_outline12" fill="none" stroke="none" d="M28.50000385195017,334.50000608712435h94a5,5,0,0,1,5,5v12a5,5,0,0,1,-5,5h-94a5,5,0,0,1,-5,-5v-12a5,5,0,0,1,5,-5z" stroke-width="3"></path><g id="node_text12" fill="black"><text id="kity_text_113" text-rendering="inherit" font-size="12" dy=".8em" y="337.70000606030226" x="33.50000385195017">webpack(中等)</text></g></g><g id="minder_node13" opacity="1"><g id="node_expander12" style="cursor: pointer;" display="none"><path id="kity_path_124" fill="white" stroke="gray" d="M134.50000526756048,401.5000069215894A6,6,0,1,1,122.50000526756048,401.5000069215894A6,6,0,1,1,134.50000526756048,401.5000069215894"></path><path id="kity_path_125" fill="none" stroke="gray"></path></g><path id="node_outline13" fill="none" stroke="none" d="M25.500003807246685,390.5000069215894h92a5,5,0,0,1,5,5v12a5,5,0,0,1,-5,5h-92a5,5,0,0,1,-5,-5v-12a5,5,0,0,1,5,-5z" stroke-width="3"></path><g id="node_text13" fill="black"><text id="kity_text_121" text-rendering="inherit" font-size="12" dy=".8em" y="393.7000068947673" x="30.500003807246685">gulp(简单使用)</text></g></g><g id="minder_node14" opacity="1"><g id="node_expander13" style="cursor: pointer;" display="none"><path id="kity_path_132" fill="white" stroke="gray" d="M107.50000486522913,243.5000045672059A6,6,0,1,1,95.50000486522913,243.5000045672059A6,6,0,1,1,107.50000486522913,243.5000045672059"></path><path id="kity_path_133" fill="none" stroke="gray"></path></g><path id="node_outline14" fill="none" stroke="none" d="M57.50000428408384,232.5000045672059h33a5,5,0,0,1,5,5v12a5,5,0,0,1,-5,5h-33a5,5,0,0,1,-5,-5v-12a5,5,0,0,1,5,-5z" stroke-width="3"></path><g id="node_text14" fill="black"><text id="kity_text_129" text-rendering="inherit" font-size="12" dy=".8em" y="235.70000454038382" x="62.50000428408384">sass</text></g></g><g id="minder_node15"><g id="node_expander14" style="cursor: pointer;" display="none"><path id="kity_path_140" fill="white" stroke="gray" d="M803.5000152364373,150.50000318139791A6,6,0,1,1,791.5000152364373,150.50000318139791A6,6,0,1,1,803.5000152364373,150.50000318139791"></path><path id="kity_path_141" fill="none" stroke="gray"></path></g><path id="node_outline15" fill="none" stroke="none" d="M808.5000154748559,139.50000318139791h40a5,5,0,0,1,5,5v12a5,5,0,0,1,-5,5h-40a5,5,0,0,1,-5,-5v-12a5,5,0,0,1,5,-5z" stroke-width="3"></path><g id="node_text15" fill="black"><text id="kity_text_137" text-rendering="inherit" font-size="12" dy=".8em" y="142.70000315457582" x="813.5000154748559">node</text></g></g><g id="minder_node16"><g id="node_expander15" style="cursor: pointer;"><path id="kity_path_148" fill="white" stroke="gray" d="M803.5000152364373,228.5000043436885A6,6,0,1,1,791.5000152364373,228.5000043436885A6,6,0,1,1,803.5000152364373,228.5000043436885"></path><path id="kity_path_149" fill="none" stroke="gray" d="M793.0000152364373,228.5000043436885L802.0000152364373,228.5000043436885"></path></g><path id="node_outline16" fill="none" stroke="none" d="M808.5000154748559,217.5000043436885h34a5,5,0,0,1,5,5v12a5,5,0,0,1,-5,5h-34a5,5,0,0,1,-5,-5v-12a5,5,0,0,1,5,-5z" stroke-width="3"></path><g id="node_text16" fill="black"><text id="kity_text_145" text-rendering="inherit" font-size="12" dy=".8em" y="220.7000043168664" x="813.5000154748559">java</text></g></g><g id="minder_node17"><g id="node_expander16" style="cursor: pointer;"><path id="kity_path_156" fill="white" stroke="gray" d="M803.5000152364373,332.50000589340925A6,6,0,1,1,791.5000152364373,332.50000589340925A6,6,0,1,1,803.5000152364373,332.50000589340925"></path><path id="kity_path_157" fill="none" stroke="gray" d="M793.0000152364373,332.50000589340925L802.0000152364373,332.50000589340925"></path></g><path id="node_outline17" fill="none" stroke="none" d="M808.5000154748559,321.50000589340925h47a5,5,0,0,1,5,5v12a5,5,0,0,1,-5,5h-47a5,5,0,0,1,-5,-5v-12a5,5,0,0,1,5,-5z" stroke-width="3"></path><g id="node_text17" fill="black"><text id="kity_text_153" text-rendering="inherit" font-size="12" dy=".8em" y="324.70000586658716" x="813.5000154748559">数据库</text></g></g><g id="minder_node18"><g id="node_expander17" style="cursor: pointer;" display="none"><path id="kity_path_164" fill="white" stroke="gray" d="M900.50001668185,306.50000550597906A6,6,0,1,1,888.50001668185,306.50000550597906A6,6,0,1,1,900.50001668185,306.50000550597906"></path><path id="kity_path_165" fill="none" stroke="gray"></path></g><path id="node_outline18" fill="none" stroke="none" d="M905.5000169202685,295.50000550597906h52a5,5,0,0,1,5,5v12a5,5,0,0,1,-5,5h-52a5,5,0,0,1,-5,-5v-12a5,5,0,0,1,5,-5z" stroke-width="3"></path><g id="node_text18" fill="black"><text id="kity_text_161" text-rendering="inherit" font-size="12" dy=".8em" y="298.70000547915697" x="910.5000169202685">mongo</text></g></g><g id="minder_node19"><g id="node_expander18" style="cursor: pointer;" display="none"><path id="kity_path_172" fill="white" stroke="gray" d="M900.50001668185,358.50000628083944A6,6,0,1,1,888.50001668185,358.50000628083944A6,6,0,1,1,900.50001668185,358.50000628083944"></path><path id="kity_path_173" fill="none" stroke="gray"></path></g><path id="node_outline19" fill="none" stroke="none" d="M905.5000169202685,347.50000628083944h44a5,5,0,0,1,5,5v12a5,5,0,0,1,-5,5h-44a5,5,0,0,1,-5,-5v-12a5,5,0,0,1,5,-5z" stroke-width="3"></path><g id="node_text19" fill="black"><text id="kity_text_169" text-rendering="inherit" font-size="12" dy=".8em" y="350.70000625401735" x="910.5000169202685">mysql</text></g></g><g id="minder_node20"><g id="node_expander19" style="cursor: pointer;" display="none"><path id="kity_path_180" fill="white" stroke="gray" d="M887.5000164881349,202.5000039562583A6,6,0,1,1,875.5000164881349,202.5000039562583A6,6,0,1,1,887.5000164881349,202.5000039562583"></path><path id="kity_path_181" fill="none" stroke="gray"></path></g><path id="node_outline20" fill="none" stroke="none" d="M892.5000167265534,191.5000039562583h46a5,5,0,0,1,5,5v12a5,5,0,0,1,-5,5h-46a5,5,0,0,1,-5,-5v-12a5,5,0,0,1,5,-5z" stroke-width="3"></path><g id="node_text20" fill="black"><text id="kity_text_177" text-rendering="inherit" font-size="12" dy=".8em" y="194.7000039294362" x="897.5000167265534">spring</text></g></g><g id="minder_node21"><g id="node_expander20" style="cursor: pointer;" display="none"><path id="kity_path_188" fill="white" stroke="gray" d="M887.5000164881349,254.50000473111868A6,6,0,1,1,875.5000164881349,254.50000473111868A6,6,0,1,1,887.5000164881349,254.50000473111868"></path><path id="kity_path_189" fill="none" stroke="gray"></path></g><path id="node_outline21" fill="none" stroke="none" d="M892.5000167265534,243.50000473111868h55a5,5,0,0,1,5,5v12a5,5,0,0,1,-5,5h-55a5,5,0,0,1,-5,-5v-12a5,5,0,0,1,5,-5z" stroke-width="3"></path><g id="node_text21" fill="black"><text id="kity_text_185" text-rendering="inherit" font-size="12" dy=".8em" y="246.7000047042966" x="897.5000167265534">mybatis</text></g></g></g></g></svg>